<svg width="534" height="426" viewBox="0 0 534 426" fill="none" xmlns="http://www.w3.org/2000/svg">
<rect x="2" y="2" width="530" height="422" rx="14" stroke="#4EA178" stroke-width="4"/>
<path d="M139.552 352V317.92H151.936C155.648 317.92 158.752 318.688 161.248 320.224C163.744 321.728 165.616 323.776 166.864 326.368C168.112 328.928 168.736 331.776 168.736 334.912C168.736 338.368 168.048 341.376 166.672 343.936C165.296 346.496 163.344 348.48 160.816 349.888C158.32 351.296 155.36 352 151.936 352H139.552ZM162.064 334.912C162.064 332.704 161.664 330.768 160.864 329.104C160.064 327.408 158.912 326.096 157.408 325.168C155.904 324.208 154.08 323.728 151.936 323.728H146.176V346.192H151.936C154.112 346.192 155.952 345.712 157.456 344.752C158.96 343.76 160.096 342.416 160.864 340.72C161.664 338.992 162.064 337.056 162.064 334.912ZM175.642 317.92L184.042 333.952L192.586 317.92H199.738L187.354 340.096V352H180.778V340L168.442 317.92H175.642ZM210.114 330.112V352H203.49V317.92H208.77L226.385 340.384V317.968H233.01V352H227.49L210.114 330.112ZM249.363 317.92H256.083L268.611 352H261.795L258.627 343.504H246.723L243.603 352H236.787L249.363 317.92ZM257.427 338.848L252.723 324.784L247.827 338.848H257.427ZM300.141 352V329.632L291.405 346.288H287.709L278.973 329.632V352H272.349V317.92H279.453L289.533 337.312L299.709 317.92H306.765V352H300.141ZM313.88 352V317.92H320.504V352H313.88ZM347.919 326.848C347.695 326.624 347.279 326.32 346.671 325.936C346.095 325.552 345.375 325.184 344.511 324.832C343.679 324.48 342.767 324.176 341.775 323.92C340.783 323.632 339.775 323.488 338.751 323.488C336.959 323.488 335.599 323.824 334.671 324.496C333.775 325.168 333.327 326.112 333.327 327.328C333.327 328.256 333.615 328.992 334.191 329.536C334.767 330.08 335.631 330.544 336.783 330.928C337.935 331.312 339.375 331.728 341.103 332.176C343.343 332.72 345.279 333.392 346.911 334.192C348.575 334.96 349.839 335.984 350.703 337.264C351.599 338.512 352.047 340.176 352.047 342.256C352.047 344.08 351.711 345.648 351.039 346.96C350.367 348.24 349.439 349.28 348.255 350.08C347.071 350.88 345.727 351.472 344.223 351.856C342.719 352.208 341.119 352.384 339.423 352.384C337.727 352.384 336.031 352.208 334.335 351.856C332.639 351.504 331.007 351.008 329.439 350.368C327.871 349.696 326.431 348.896 325.119 347.968L328.047 342.256C328.335 342.544 328.847 342.928 329.583 343.408C330.319 343.856 331.215 344.32 332.271 344.8C333.327 345.248 334.479 345.632 335.727 345.952C336.975 346.272 338.239 346.432 339.519 346.432C341.311 346.432 342.671 346.128 343.599 345.52C344.527 344.912 344.991 344.048 344.991 342.928C344.991 341.904 344.623 341.104 343.887 340.528C343.151 339.952 342.127 339.456 340.815 339.04C339.503 338.592 337.951 338.112 336.159 337.6C334.015 336.992 332.223 336.32 330.783 335.584C329.343 334.816 328.271 333.856 327.567 332.704C326.863 331.552 326.511 330.112 326.511 328.384C326.511 326.048 327.055 324.096 328.143 322.528C329.263 320.928 330.767 319.728 332.655 318.928C334.543 318.096 336.639 317.68 338.943 317.68C340.543 317.68 342.047 317.856 343.455 318.208C344.895 318.56 346.239 319.024 347.487 319.6C348.735 320.176 349.855 320.8 350.847 321.472L347.919 326.848ZM384.844 352V329.632L376.108 346.288H372.412L363.676 329.632V352H357.052V317.92H364.156L374.236 337.312L384.412 317.92H391.468V352H384.844Z" fill="#529775"/>
<ellipse cx="266" cy="164" rx="108" ry="105" fill="#458E67"/>
<path d="M312.125 162.875C312.125 168.458 311.312 173.833 309.688 179C308.062 184.167 305.479 188.792 301.938 192.875C298.438 196.917 293.854 200.125 288.188 202.5C282.562 204.833 275.729 206 267.688 206H232.125V200.5L238.875 200C239.792 199.917 240.479 199.583 240.938 199C241.438 198.417 241.688 197.812 241.688 197.188V128.938C241.688 128.312 241.438 127.708 240.938 127.125C240.479 126.5 239.792 126.167 238.875 126.125L232.125 125.625V120.125H265.125C274.083 120.125 282.104 121.646 289.188 124.688C296.271 127.688 301.854 132.333 305.938 138.625C310.062 144.917 312.125 153 312.125 162.875ZM297.625 163.125C297.625 154.167 296.25 147 293.5 141.625C290.792 136.208 286.938 132.292 281.938 129.875C276.979 127.458 271.125 126.25 264.375 126.25H254.625V199.875L265 199.75C271.583 199.667 277.312 198.417 282.188 196C287.062 193.542 290.854 189.646 293.562 184.312C296.271 178.979 297.625 171.917 297.625 163.125Z" fill="white"/>
</svg>
