<svg width="146" height="85" viewBox="0 0 146 85" fill="none" xmlns="http://www.w3.org/2000/svg">
<path d="M15.48 72.792C12.264 72.792 9.456 72.216 7.056 71.064C4.704 69.864 2.688 68.208 1.008 66.096L8.568 58.824C9.432 60.024 10.44 60.936 11.592 61.56C12.792 62.184 14.136 62.496 15.624 62.496C17.064 62.496 18.312 62.208 19.368 61.632C20.424 61.008 21.264 60.144 21.888 59.04C22.512 57.888 22.824 56.472 22.824 54.792V21.168H34.2V54.144C34.2 57.936 33.432 61.224 31.896 64.008C30.36 66.792 28.2 68.952 25.416 70.488C22.632 72.024 19.32 72.792 15.48 72.792ZM67.1923 72.792C63.4963 72.792 60.0163 72.12 56.7523 70.776C53.5363 69.432 50.7283 67.584 48.3283 65.232C45.9283 62.832 44.0323 60.048 42.6403 56.88C41.2963 53.664 40.6243 50.208 40.6243 46.512C40.6243 42.816 41.3203 39.384 42.7123 36.216C44.1043 33.048 46.0243 30.288 48.4723 27.936C50.9683 25.536 53.8723 23.688 57.1843 22.392C60.4963 21.048 64.0483 20.376 67.8403 20.376C72.2083 20.376 76.1683 21.168 79.7203 22.752C83.3203 24.336 86.2963 26.52 88.6483 29.304L80.9443 37.008C79.3123 34.896 77.3923 33.312 75.1843 32.256C72.9763 31.2 70.4803 30.672 67.6963 30.672C64.7203 30.672 62.0563 31.344 59.7043 32.688C57.3523 33.984 55.5043 35.832 54.1603 38.232C52.8643 40.584 52.2163 43.344 52.2163 46.512C52.2163 49.68 52.8643 52.464 54.1603 54.864C55.4563 57.264 57.2323 59.136 59.4883 60.48C61.7443 61.824 64.3363 62.496 67.2643 62.496C70.2403 62.496 72.7603 61.944 74.8243 60.84C76.9363 59.688 78.5443 58.056 79.6483 55.944C80.8003 53.784 81.3763 51.168 81.3763 48.096L88.8643 53.136L66.1843 52.776V43.2H92.8963V44.856C92.8963 50.952 91.7923 56.088 89.5843 60.264C87.4243 64.392 84.4003 67.512 80.5123 69.624C76.6723 71.736 72.2323 72.792 67.1923 72.792ZM124.571 72.792C120.779 72.792 117.251 72.144 113.987 70.848C110.771 69.504 107.939 67.632 105.491 65.232C103.091 62.832 101.219 60.048 99.8747 56.88C98.5307 53.664 97.8587 50.208 97.8587 46.512C97.8587 42.816 98.5307 39.384 99.8747 36.216C101.219 33 103.091 30.216 105.491 27.864C107.891 25.512 110.699 23.688 113.915 22.392C117.179 21.048 120.707 20.376 124.499 20.376C128.531 20.376 132.107 21.024 135.227 22.32C138.395 23.616 141.155 25.392 143.507 27.648L135.947 35.28C134.603 33.84 132.971 32.712 131.051 31.896C129.179 31.08 126.995 30.672 124.499 30.672C122.291 30.672 120.251 31.056 118.379 31.824C116.555 32.544 114.971 33.6 113.627 34.992C112.331 36.384 111.299 38.064 110.531 40.032C109.811 42 109.451 44.16 109.451 46.512C109.451 48.912 109.811 51.096 110.531 53.064C111.299 55.032 112.331 56.712 113.627 58.104C114.971 59.496 116.555 60.576 118.379 61.344C120.251 62.112 122.291 62.496 124.499 62.496C127.091 62.496 129.347 62.088 131.267 61.272C133.187 60.456 134.843 59.328 136.235 57.888L143.867 65.52C141.419 67.776 138.611 69.552 135.443 70.848C132.323 72.144 128.699 72.792 124.571 72.792Z" fill="#458E67"/>
</svg>
