<svg width="2476" height="243" viewBox="0 0 2476 243" fill="none" xmlns="http://www.w3.org/2000/svg">
<g clip-path="url(#clip0_3424_603)">
<rect width="2476" height="243" fill="#F7F7F7"/>
<rect width="82.1596" height="256.174" transform="matrix(0.705849 -0.708362 0.785641 0.618683 1537.27 97.9863)" fill="#52C58B"/>
<rect width="87.1236" height="268.895" transform="matrix(0.808338 0.606835 -0.681252 0.717164 1908 51.3574)" fill="#606470"/>
<rect width="81.1211" height="268.895" transform="matrix(0.808338 0.606835 -0.681252 0.717164 1985.51 -154.043)" fill="#606470"/>
<rect width="87.5216" height="158.09" transform="matrix(0.692469 -0.706409 0.799068 0.619036 1799.03 40.6875)" fill="#606470"/>
<rect width="92.4378" height="268.357" transform="matrix(-0.689199 0.711133 -0.801546 -0.613918 2141.62 190.418)" fill="#606470"/>
<rect width="74.4304" height="260.804" transform="matrix(-0.689199 0.711133 -0.801546 -0.613918 2365.25 268.211)" fill="#A8E2C5"/>
<rect width="68.6943" height="158.975" transform="matrix(0.828496 0.577075 -0.656736 0.741277 2154.46 107.582)" fill="#606470"/>
<rect width="72.1449" height="261.303" transform="matrix(-0.803975 -0.609065 -0.639338 0.757548 2329.8 8.15625)" fill="#A8E2C5"/>
<rect width="65.678" height="259.028" transform="matrix(-0.803975 -0.609065 -0.639338 0.757548 2537.79 -94.5234)" fill="#A8E2C5"/>
<rect width="60.997" height="154.414" transform="matrix(0.627275 -0.767559 -0.813134 -0.596743 2364.56 94.8555)" fill="#A8E2C5"/>
</g>
<defs>
<clipPath id="clip0_3424_603">
<rect width="2476" height="243" fill="white"/>
</clipPath>
</defs>
</svg>
