<svg width="534" height="420" viewBox="0 0 534 420" fill="none" xmlns="http://www.w3.org/2000/svg">
<rect x="2" y="2" width="530" height="416" rx="14" stroke="#4EA178" stroke-width="4"/>
<path d="M170.824 348.04C171.24 348.328 171.976 348.68 173.032 349.096C174.088 349.48 175.336 349.672 176.776 349.672C178.024 349.672 179.048 349.464 179.848 349.048C180.648 348.6 181.256 347.944 181.672 347.08C182.12 346.216 182.408 345.096 182.536 343.72C182.696 342.344 182.776 340.696 182.776 338.776V320.92H189.4V338.248C189.4 340.808 189.256 343.144 188.968 345.256C188.68 347.368 188.12 349.192 187.288 350.728C186.456 352.264 185.192 353.448 183.496 354.28C181.832 355.112 179.608 355.528 176.824 355.528C175.288 355.528 173.912 355.352 172.696 355C171.48 354.648 170.36 354.12 169.336 353.416L170.824 348.04ZM210.578 355.24C207.858 355.24 205.538 354.792 203.618 353.896C201.73 352.968 200.194 351.704 199.01 350.104C197.858 348.504 197.01 346.696 196.466 344.68C195.922 342.632 195.65 340.504 195.65 338.296V320.92H202.274V338.296C202.274 339.704 202.402 341.08 202.658 342.424C202.946 343.736 203.41 344.92 204.05 345.976C204.69 347.032 205.538 347.864 206.594 348.472C207.65 349.08 208.962 349.384 210.53 349.384C212.13 349.384 213.458 349.08 214.514 348.472C215.602 347.832 216.45 346.984 217.058 345.928C217.698 344.872 218.162 343.688 218.45 342.376C218.738 341.032 218.882 339.672 218.882 338.296V320.92H225.458V338.296C225.458 340.632 225.17 342.824 224.594 344.872C224.05 346.92 223.17 348.728 221.954 350.296C220.77 351.832 219.234 353.048 217.346 353.944C215.458 354.808 213.202 355.24 210.578 355.24ZM252.434 329.848C252.21 329.624 251.794 329.32 251.186 328.936C250.61 328.552 249.89 328.184 249.026 327.832C248.194 327.48 247.282 327.176 246.29 326.92C245.298 326.632 244.29 326.488 243.266 326.488C241.474 326.488 240.114 326.824 239.186 327.496C238.29 328.168 237.842 329.112 237.842 330.328C237.842 331.256 238.13 331.992 238.706 332.536C239.282 333.08 240.146 333.544 241.298 333.928C242.45 334.312 243.89 334.728 245.618 335.176C247.858 335.72 249.794 336.392 251.426 337.192C253.09 337.96 254.354 338.984 255.218 340.264C256.114 341.512 256.562 343.176 256.562 345.256C256.562 347.08 256.226 348.648 255.554 349.96C254.882 351.24 253.954 352.28 252.77 353.08C251.586 353.88 250.242 354.472 248.738 354.856C247.234 355.208 245.634 355.384 243.938 355.384C242.242 355.384 240.546 355.208 238.85 354.856C237.154 354.504 235.522 354.008 233.954 353.368C232.386 352.696 230.946 351.896 229.634 350.968L232.562 345.256C232.85 345.544 233.362 345.928 234.098 346.408C234.834 346.856 235.73 347.32 236.786 347.8C237.842 348.248 238.994 348.632 240.242 348.952C241.49 349.272 242.754 349.432 244.034 349.432C245.826 349.432 247.186 349.128 248.114 348.52C249.042 347.912 249.506 347.048 249.506 345.928C249.506 344.904 249.138 344.104 248.402 343.528C247.666 342.952 246.642 342.456 245.33 342.04C244.018 341.592 242.466 341.112 240.674 340.6C238.53 339.992 236.738 339.32 235.298 338.584C233.858 337.816 232.786 336.856 232.082 335.704C231.378 334.552 231.026 333.112 231.026 331.384C231.026 329.048 231.57 327.096 232.658 325.528C233.778 323.928 235.282 322.728 237.17 321.928C239.058 321.096 241.154 320.68 243.458 320.68C245.058 320.68 246.562 320.856 247.97 321.208C249.41 321.56 250.754 322.024 252.002 322.6C253.25 323.176 254.37 323.8 255.362 324.472L252.434 329.848ZM287.056 326.728H276.16V355H269.584V326.728H258.688V320.92H287.056V326.728ZM291.286 355V320.92H297.91V355H291.286ZM302.957 337.72C302.957 335.64 303.325 333.608 304.061 331.624C304.829 329.608 305.933 327.784 307.373 326.152C308.813 324.488 310.573 323.176 312.653 322.216C314.733 321.224 317.101 320.728 319.757 320.728C322.893 320.728 325.597 321.416 327.869 322.792C330.173 324.168 331.885 325.96 333.005 328.168L327.917 331.672C327.341 330.392 326.589 329.384 325.661 328.648C324.733 327.88 323.741 327.352 322.685 327.064C321.629 326.744 320.589 326.584 319.565 326.584C317.901 326.584 316.445 326.92 315.197 327.592C313.981 328.264 312.957 329.144 312.125 330.232C311.293 331.32 310.669 332.536 310.253 333.88C309.869 335.224 309.677 336.568 309.677 337.912C309.677 339.416 309.917 340.872 310.397 342.28C310.877 343.656 311.549 344.888 312.413 345.976C313.309 347.032 314.365 347.88 315.581 348.52C316.829 349.128 318.189 349.432 319.661 349.432C320.717 349.432 321.789 349.256 322.877 348.904C323.965 348.552 324.973 347.992 325.901 347.224C326.829 346.456 327.549 345.464 328.061 344.248L333.485 347.368C332.813 349.064 331.709 350.504 330.173 351.688C328.669 352.872 326.973 353.768 325.085 354.376C323.197 354.984 321.325 355.288 319.469 355.288C317.037 355.288 314.813 354.792 312.797 353.8C310.781 352.776 309.037 351.432 307.565 349.768C306.125 348.072 304.989 346.184 304.157 344.104C303.357 341.992 302.957 339.864 302.957 337.72ZM361.591 349.192V355H337.927V320.92H361.159V326.728H344.551V334.936H358.903V340.312H344.551V349.192H361.591Z" fill="#529775"/>
<ellipse cx="267" cy="171" rx="108" ry="105" fill="#458E67"/>
<path d="M293.75 132.625L286.312 133.125C285.438 133.167 284.771 133.5 284.312 134.125C283.854 134.708 283.625 135.312 283.625 135.938V180.625C283.625 187.708 282.708 193.833 280.875 199C279.083 204.125 276.125 208.083 272 210.875C267.917 213.667 262.417 215.062 255.5 215.062C252.75 215.062 250.083 214.771 247.5 214.188C244.958 213.646 242.833 213.083 241.125 212.5C239.417 211.875 238.438 211.521 238.188 211.438V189.562H245.875L248.688 205.188C248.938 206.479 249.646 207.354 250.812 207.812C252.021 208.271 253.271 208.5 254.562 208.5C260.396 208.5 264.542 206.25 267 201.75C269.458 197.208 270.688 190.458 270.688 181.5V135.938C270.688 135.312 270.458 134.708 270 134.125C269.583 133.5 268.917 133.167 268 133.125L259.938 132.625V127.125H293.75V132.625Z" fill="white"/>
</svg>
