<svg width="618" height="449" viewBox="0 0 618 449" fill="none" xmlns="http://www.w3.org/2000/svg">
<rect x="2" y="2" width="614" height="445" rx="14" stroke="#4EA178" stroke-width="4"/>
<path d="M89.552 364V329.92H104C105.568 329.92 107.008 330.24 108.32 330.88C109.632 331.52 110.768 332.384 111.728 333.472C112.72 334.56 113.488 335.776 114.032 337.12C114.576 338.464 114.848 339.84 114.848 341.248C114.848 343.168 114.4 344.992 113.504 346.72C112.608 348.448 111.376 349.856 109.808 350.944C108.24 352.032 106.384 352.576 104.24 352.576H96.176V364H89.552ZM96.176 346.768H103.856C104.656 346.768 105.376 346.544 106.016 346.096C106.656 345.648 107.168 345.008 107.552 344.176C107.936 343.312 108.128 342.336 108.128 341.248C108.128 340.064 107.904 339.056 107.456 338.224C107.04 337.392 106.48 336.768 105.776 336.352C105.104 335.936 104.368 335.728 103.568 335.728H96.176V346.768ZM119.458 364V329.92H134.53C136.098 329.92 137.538 330.24 138.85 330.88C140.194 331.52 141.346 332.384 142.306 333.472C143.298 334.56 144.05 335.776 144.562 337.12C145.106 338.464 145.378 339.84 145.378 341.248C145.378 342.688 145.122 344.08 144.61 345.424C144.13 346.736 143.426 347.888 142.498 348.88C141.57 349.872 140.482 350.64 139.234 351.184L147.01 364H139.714L132.706 352.576H126.082V364H119.458ZM126.082 346.768H134.386C135.218 346.768 135.954 346.528 136.594 346.048C137.234 345.536 137.746 344.864 138.13 344.032C138.514 343.2 138.706 342.272 138.706 341.248C138.706 340.16 138.482 339.216 138.034 338.416C137.586 337.584 137.01 336.928 136.306 336.448C135.634 335.968 134.898 335.728 134.098 335.728H126.082V346.768ZM165.737 364.24C163.241 364.24 160.969 363.76 158.921 362.8C156.905 361.84 155.161 360.544 153.689 358.912C152.249 357.248 151.129 355.392 150.329 353.344C149.529 351.264 149.129 349.136 149.129 346.96C149.129 344.688 149.545 342.528 150.377 340.48C151.241 338.4 152.409 336.56 153.881 334.96C155.385 333.328 157.145 332.048 159.161 331.12C161.209 330.16 163.449 329.68 165.881 329.68C168.345 329.68 170.585 330.176 172.601 331.168C174.649 332.16 176.393 333.488 177.833 335.152C179.273 336.816 180.393 338.672 181.193 340.72C181.993 342.768 182.393 344.88 182.393 347.056C182.393 349.296 181.977 351.456 181.145 353.536C180.313 355.584 179.145 357.424 177.641 359.056C176.169 360.656 174.409 361.92 172.361 362.848C170.345 363.776 168.137 364.24 165.737 364.24ZM155.849 346.96C155.849 348.432 156.073 349.856 156.521 351.232C156.969 352.608 157.609 353.84 158.441 354.928C159.305 355.984 160.345 356.832 161.561 357.472C162.809 358.08 164.217 358.384 165.785 358.384C167.385 358.384 168.809 358.064 170.057 357.424C171.305 356.752 172.345 355.872 173.177 354.784C174.009 353.664 174.633 352.432 175.049 351.088C175.497 349.712 175.721 348.336 175.721 346.96C175.721 345.488 175.481 344.08 175.001 342.736C174.553 341.36 173.897 340.144 173.033 339.088C172.201 338 171.161 337.152 169.913 336.544C168.697 335.904 167.321 335.584 165.785 335.584C164.153 335.584 162.713 335.92 161.465 336.592C160.249 337.232 159.225 338.096 158.393 339.184C157.561 340.272 156.921 341.488 156.473 342.832C156.057 344.176 155.849 345.552 155.849 346.96ZM187.474 364V329.92H210.37V335.728H194.098V344.512H207.634V349.888H194.098V364H187.474ZM238.7 358.192V364H215.036V329.92H238.268V335.728H221.66V343.936H236.012V349.312H221.66V358.192H238.7ZM264.169 338.848C263.945 338.624 263.529 338.32 262.921 337.936C262.345 337.552 261.625 337.184 260.761 336.832C259.929 336.48 259.017 336.176 258.025 335.92C257.033 335.632 256.025 335.488 255.001 335.488C253.209 335.488 251.849 335.824 250.921 336.496C250.025 337.168 249.577 338.112 249.577 339.328C249.577 340.256 249.865 340.992 250.441 341.536C251.017 342.08 251.881 342.544 253.033 342.928C254.185 343.312 255.625 343.728 257.353 344.176C259.593 344.72 261.529 345.392 263.161 346.192C264.825 346.96 266.089 347.984 266.953 349.264C267.849 350.512 268.297 352.176 268.297 354.256C268.297 356.08 267.961 357.648 267.289 358.96C266.617 360.24 265.689 361.28 264.505 362.08C263.321 362.88 261.977 363.472 260.473 363.856C258.969 364.208 257.369 364.384 255.673 364.384C253.977 364.384 252.281 364.208 250.585 363.856C248.889 363.504 247.257 363.008 245.689 362.368C244.121 361.696 242.681 360.896 241.369 359.968L244.297 354.256C244.585 354.544 245.097 354.928 245.833 355.408C246.569 355.856 247.465 356.32 248.521 356.8C249.577 357.248 250.729 357.632 251.977 357.952C253.225 358.272 254.489 358.432 255.769 358.432C257.561 358.432 258.921 358.128 259.849 357.52C260.777 356.912 261.241 356.048 261.241 354.928C261.241 353.904 260.873 353.104 260.137 352.528C259.401 351.952 258.377 351.456 257.065 351.04C255.753 350.592 254.201 350.112 252.409 349.6C250.265 348.992 248.473 348.32 247.033 347.584C245.593 346.816 244.521 345.856 243.817 344.704C243.113 343.552 242.761 342.112 242.761 340.384C242.761 338.048 243.305 336.096 244.393 334.528C245.513 332.928 247.017 331.728 248.905 330.928C250.793 330.096 252.889 329.68 255.193 329.68C256.793 329.68 258.297 329.856 259.705 330.208C261.145 330.56 262.489 331.024 263.737 331.6C264.985 332.176 266.105 332.8 267.097 333.472L264.169 338.848ZM293.606 338.848C293.382 338.624 292.966 338.32 292.358 337.936C291.782 337.552 291.062 337.184 290.198 336.832C289.366 336.48 288.454 336.176 287.462 335.92C286.47 335.632 285.462 335.488 284.438 335.488C282.646 335.488 281.286 335.824 280.358 336.496C279.462 337.168 279.014 338.112 279.014 339.328C279.014 340.256 279.302 340.992 279.878 341.536C280.454 342.08 281.318 342.544 282.47 342.928C283.622 343.312 285.062 343.728 286.79 344.176C289.03 344.72 290.966 345.392 292.598 346.192C294.262 346.96 295.526 347.984 296.39 349.264C297.286 350.512 297.734 352.176 297.734 354.256C297.734 356.08 297.398 357.648 296.726 358.96C296.054 360.24 295.126 361.28 293.942 362.08C292.758 362.88 291.414 363.472 289.91 363.856C288.406 364.208 286.806 364.384 285.11 364.384C283.414 364.384 281.718 364.208 280.022 363.856C278.326 363.504 276.694 363.008 275.126 362.368C273.558 361.696 272.118 360.896 270.806 359.968L273.734 354.256C274.022 354.544 274.534 354.928 275.27 355.408C276.006 355.856 276.902 356.32 277.958 356.8C279.014 357.248 280.166 357.632 281.414 357.952C282.662 358.272 283.926 358.432 285.206 358.432C286.998 358.432 288.358 358.128 289.286 357.52C290.214 356.912 290.678 356.048 290.678 354.928C290.678 353.904 290.31 353.104 289.574 352.528C288.838 351.952 287.814 351.456 286.502 351.04C285.19 350.592 283.638 350.112 281.846 349.6C279.702 348.992 277.91 348.32 276.47 347.584C275.03 346.816 273.958 345.856 273.254 344.704C272.55 343.552 272.198 342.112 272.198 340.384C272.198 338.048 272.742 336.096 273.83 334.528C274.95 332.928 276.454 331.728 278.342 330.928C280.23 330.096 282.326 329.68 284.63 329.68C286.23 329.68 287.734 329.856 289.142 330.208C290.582 330.56 291.926 331.024 293.174 331.6C294.422 332.176 295.542 332.8 296.534 333.472L293.606 338.848ZM302.74 364V329.92H309.364V364H302.74ZM331.018 364.24C328.522 364.24 326.25 363.76 324.202 362.8C322.186 361.84 320.442 360.544 318.97 358.912C317.53 357.248 316.41 355.392 315.61 353.344C314.81 351.264 314.41 349.136 314.41 346.96C314.41 344.688 314.826 342.528 315.658 340.48C316.522 338.4 317.69 336.56 319.162 334.96C320.666 333.328 322.426 332.048 324.442 331.12C326.49 330.16 328.73 329.68 331.162 329.68C333.626 329.68 335.866 330.176 337.882 331.168C339.93 332.16 341.674 333.488 343.114 335.152C344.554 336.816 345.674 338.672 346.474 340.72C347.274 342.768 347.674 344.88 347.674 347.056C347.674 349.296 347.258 351.456 346.426 353.536C345.594 355.584 344.426 357.424 342.922 359.056C341.45 360.656 339.69 361.92 337.642 362.848C335.626 363.776 333.418 364.24 331.018 364.24ZM321.13 346.96C321.13 348.432 321.354 349.856 321.802 351.232C322.25 352.608 322.89 353.84 323.722 354.928C324.586 355.984 325.626 356.832 326.842 357.472C328.09 358.08 329.498 358.384 331.066 358.384C332.666 358.384 334.09 358.064 335.338 357.424C336.586 356.752 337.626 355.872 338.458 354.784C339.29 353.664 339.914 352.432 340.33 351.088C340.778 349.712 341.002 348.336 341.002 346.96C341.002 345.488 340.762 344.08 340.282 342.736C339.834 341.36 339.178 340.144 338.314 339.088C337.482 338 336.442 337.152 335.194 336.544C333.978 335.904 332.602 335.584 331.066 335.584C329.434 335.584 327.994 335.92 326.746 336.592C325.53 337.232 324.506 338.096 323.674 339.184C322.842 340.272 322.202 341.488 321.754 342.832C321.338 344.176 321.13 345.552 321.13 346.96ZM359.379 342.112V364H352.755V329.92H358.035L375.651 352.384V329.968H382.275V364H376.755L359.379 342.112ZM398.629 329.92H405.349L417.877 364H411.061L407.893 355.504H395.989L392.868 364H386.053L398.629 329.92ZM406.693 350.848L401.989 336.784L397.093 350.848H406.693ZM421.615 364V329.92H428.239V358.192H445.615V364H421.615ZM449.646 364V329.92H456.27V364H449.646ZM483.684 338.848C483.46 338.624 483.044 338.32 482.436 337.936C481.86 337.552 481.14 337.184 480.276 336.832C479.444 336.48 478.532 336.176 477.54 335.92C476.548 335.632 475.54 335.488 474.516 335.488C472.724 335.488 471.364 335.824 470.436 336.496C469.54 337.168 469.092 338.112 469.092 339.328C469.092 340.256 469.38 340.992 469.956 341.536C470.532 342.08 471.396 342.544 472.548 342.928C473.7 343.312 475.14 343.728 476.868 344.176C479.108 344.72 481.044 345.392 482.676 346.192C484.34 346.96 485.604 347.984 486.468 349.264C487.364 350.512 487.812 352.176 487.812 354.256C487.812 356.08 487.476 357.648 486.804 358.96C486.132 360.24 485.204 361.28 484.02 362.08C482.836 362.88 481.492 363.472 479.988 363.856C478.484 364.208 476.884 364.384 475.188 364.384C473.492 364.384 471.796 364.208 470.1 363.856C468.404 363.504 466.772 363.008 465.204 362.368C463.636 361.696 462.196 360.896 460.884 359.968L463.812 354.256C464.1 354.544 464.612 354.928 465.348 355.408C466.084 355.856 466.98 356.32 468.036 356.8C469.092 357.248 470.244 357.632 471.492 357.952C472.74 358.272 474.004 358.432 475.284 358.432C477.076 358.432 478.436 358.128 479.364 357.52C480.292 356.912 480.756 356.048 480.756 354.928C480.756 353.904 480.388 353.104 479.652 352.528C478.916 351.952 477.892 351.456 476.58 351.04C475.268 350.592 473.716 350.112 471.924 349.6C469.78 348.992 467.988 348.32 466.548 347.584C465.108 346.816 464.036 345.856 463.332 344.704C462.628 343.552 462.276 342.112 462.276 340.384C462.276 338.048 462.82 336.096 463.908 334.528C465.028 332.928 466.532 331.728 468.42 330.928C470.308 330.096 472.404 329.68 474.708 329.68C476.308 329.68 477.812 329.856 479.22 330.208C480.66 330.56 482.004 331.024 483.252 331.6C484.5 332.176 485.62 332.8 486.612 333.472L483.684 338.848ZM520.61 364V341.632L511.874 358.288H508.178L499.442 341.632V364H492.818V329.92H499.922L510.002 349.312L520.178 329.92H527.234V364H520.61Z" fill="#529775"/>
<ellipse cx="309" cy="171" rx="108" ry="105" fill="#458E67"/>
<path d="M348.125 152.938C348.125 159.188 346.646 164.375 343.688 168.5C340.729 172.625 336.75 175.729 331.75 177.812C326.75 179.854 321.188 180.875 315.062 180.875H314.688C313.021 180.875 311.167 180.812 309.125 180.688C307.125 180.521 305.958 180.417 305.625 180.375V204.188C305.625 204.812 305.833 205.417 306.25 206C306.708 206.583 307.396 206.917 308.312 207L316.75 207.5V213H283.125V207.5L289.875 207C290.792 206.917 291.479 206.583 291.938 206C292.438 205.417 292.688 204.812 292.688 204.188V135.938C292.688 135.312 292.438 134.708 291.938 134.125C291.479 133.5 290.792 133.167 289.875 133.125L282.188 132.625V127.125H312.812C324.896 127.125 333.792 129.062 339.5 132.938C345.25 136.812 348.125 143.479 348.125 152.938ZM334.812 153.125C334.812 146.917 333.062 142.083 329.562 138.625C326.104 135.125 320.292 133.375 312.125 133.375C310.958 133.375 309.583 133.396 308 133.438C306.417 133.479 305.625 133.5 305.625 133.5V173.812C305.833 173.812 306.771 173.938 308.438 174.188C310.146 174.396 311.604 174.5 312.812 174.5H313.188C319.812 174.5 325.062 172.771 328.938 169.312C332.854 165.854 334.812 160.458 334.812 153.125Z" fill="white"/>
</svg>
