<svg width="447" height="85" viewBox="0 0 447 85" fill="none" xmlns="http://www.w3.org/2000/svg">
<path d="M15.48 72.792C12.264 72.792 9.456 72.216 7.056 71.064C4.704 69.864 2.688 68.208 1.008 66.096L8.568 58.824C9.432 60.024 10.44 60.936 11.592 61.56C12.792 62.184 14.136 62.496 15.624 62.496C17.064 62.496 18.312 62.208 19.368 61.632C20.424 61.008 21.264 60.144 21.888 59.04C22.512 57.888 22.824 56.472 22.824 54.792V21.168H34.2V54.144C34.2 57.936 33.432 61.224 31.896 64.008C30.36 66.792 28.2 68.952 25.416 70.488C22.632 72.024 19.32 72.792 15.48 72.792ZM67.1923 72.792C63.4963 72.792 60.0163 72.12 56.7523 70.776C53.5363 69.432 50.7283 67.584 48.3283 65.232C45.9283 62.832 44.0323 60.048 42.6403 56.88C41.2963 53.664 40.6243 50.208 40.6243 46.512C40.6243 42.816 41.3203 39.384 42.7123 36.216C44.1043 33.048 46.0243 30.288 48.4723 27.936C50.9683 25.536 53.8723 23.688 57.1843 22.392C60.4963 21.048 64.0483 20.376 67.8403 20.376C72.2083 20.376 76.1683 21.168 79.7203 22.752C83.3203 24.336 86.2963 26.52 88.6483 29.304L80.9443 37.008C79.3123 34.896 77.3923 33.312 75.1843 32.256C72.9763 31.2 70.4803 30.672 67.6963 30.672C64.7203 30.672 62.0563 31.344 59.7043 32.688C57.3523 33.984 55.5043 35.832 54.1603 38.232C52.8643 40.584 52.2163 43.344 52.2163 46.512C52.2163 49.68 52.8643 52.464 54.1603 54.864C55.4563 57.264 57.2323 59.136 59.4883 60.48C61.7443 61.824 64.3363 62.496 67.2643 62.496C70.2403 62.496 72.7603 61.944 74.8243 60.84C76.9363 59.688 78.5443 58.056 79.6483 55.944C80.8003 53.784 81.3763 51.168 81.3763 48.096L88.8643 53.136L66.1843 52.776V43.2H92.8963V44.856C92.8963 50.952 91.7923 56.088 89.5843 60.264C87.4243 64.392 84.4003 67.512 80.5123 69.624C76.6723 71.736 72.2323 72.792 67.1923 72.792ZM124.571 72.792C120.779 72.792 117.251 72.144 113.987 70.848C110.771 69.504 107.939 67.632 105.491 65.232C103.091 62.832 101.219 60.048 99.8747 56.88C98.5307 53.664 97.8587 50.208 97.8587 46.512C97.8587 42.816 98.5307 39.384 99.8747 36.216C101.219 33 103.091 30.216 105.491 27.864C107.891 25.512 110.699 23.688 113.915 22.392C117.179 21.048 120.707 20.376 124.499 20.376C128.531 20.376 132.107 21.024 135.227 22.32C138.395 23.616 141.155 25.392 143.507 27.648L135.947 35.28C134.603 33.84 132.971 32.712 131.051 31.896C129.179 31.08 126.995 30.672 124.499 30.672C122.291 30.672 120.251 31.056 118.379 31.824C116.555 32.544 114.971 33.6 113.627 34.992C112.331 36.384 111.299 38.064 110.531 40.032C109.811 42 109.451 44.16 109.451 46.512C109.451 48.912 109.811 51.096 110.531 53.064C111.299 55.032 112.331 56.712 113.627 58.104C114.971 59.496 116.555 60.576 118.379 61.344C120.251 62.112 122.291 62.496 124.499 62.496C127.091 62.496 129.347 62.088 131.267 61.272C133.187 60.456 134.843 59.328 136.235 57.888L143.867 65.52C141.419 67.776 138.611 69.552 135.443 70.848C132.323 72.144 128.699 72.792 124.571 72.792Z" fill="#458E67"/>
<path d="M154.801 42.1722C153.729 42.1722 152.793 41.9802 151.993 41.5962C151.209 41.1962 150.537 40.6442 149.977 39.9402L152.497 37.5162C152.785 37.9162 153.121 38.2202 153.505 38.4282C153.905 38.6362 154.353 38.7402 154.849 38.7402C155.329 38.7402 155.745 38.6442 156.097 38.4522C156.449 38.2442 156.729 37.9562 156.937 37.5882C157.145 37.2042 157.249 36.7322 157.249 36.1722V24.9642H161.041V35.9562C161.041 37.2202 160.785 38.3162 160.273 39.2442C159.761 40.1722 159.041 40.8922 158.113 41.4042C157.185 41.9162 156.081 42.1722 154.801 42.1722ZM162.141 41.9082L168.861 24.9642H172.269L178.917 41.9082H174.933L169.845 27.8442H171.213L166.053 41.9082H162.141ZM165.957 38.8362V35.7642H175.197V38.8362H165.957ZM180.71 41.9082V24.9642H183.398L190.07 35.3562H188.702L195.35 24.9642H198.062V41.9082H194.294V31.3242L194.966 31.4922L190.622 38.2602H188.126L183.806 31.4922L184.454 31.3242V41.9082H180.71ZM201.312 41.9082V24.9642H205.08V41.9082H201.312ZM204.192 41.9082V38.6442H213.48V41.9082H204.192ZM204.192 34.8282V31.6842H212.64V34.8282H204.192ZM204.192 28.2042V24.9642H213.36V28.2042H204.192ZM218.957 34.9242V32.1402H222.533C223.285 32.1402 223.861 31.9482 224.261 31.5642C224.677 31.1802 224.885 30.6602 224.885 30.0042C224.885 29.3962 224.685 28.8922 224.285 28.4922C223.885 28.0922 223.309 27.8922 222.557 27.8922H218.957V24.9642H222.989C224.109 24.9642 225.093 25.1802 225.941 25.6122C226.789 26.0282 227.453 26.6122 227.933 27.3642C228.413 28.1162 228.653 28.9802 228.653 29.9562C228.653 30.9482 228.413 31.8202 227.933 32.5722C227.453 33.3082 226.781 33.8842 225.917 34.3002C225.053 34.7162 224.037 34.9242 222.869 34.9242H218.957ZM216.077 41.9082V24.9642H219.845V41.9082H216.077ZM225.293 41.9082L220.013 34.6122L223.469 33.6762L229.757 41.9082H225.293ZM239.4 42.1962C238.12 42.1962 236.936 41.9722 235.848 41.5242C234.776 41.0762 233.832 40.4522 233.016 39.6522C232.2 38.8522 231.568 37.9242 231.12 36.8682C230.672 35.7962 230.448 34.6442 230.448 33.4122C230.448 32.1642 230.672 31.0122 231.12 29.9562C231.568 28.9002 232.192 27.9802 232.992 27.1962C233.792 26.3962 234.728 25.7802 235.8 25.3482C236.888 24.9002 238.072 24.6762 239.352 24.6762C240.616 24.6762 241.784 24.9002 242.856 25.3482C243.944 25.7802 244.888 26.3962 245.688 27.1962C246.504 27.9802 247.136 28.9082 247.584 29.9802C248.032 31.0362 248.256 32.1882 248.256 33.4362C248.256 34.6682 248.032 35.8202 247.584 36.8922C247.136 37.9482 246.512 38.8762 245.712 39.6762C244.912 40.4602 243.968 41.0762 242.88 41.5242C241.808 41.9722 240.648 42.1962 239.4 42.1962ZM239.352 38.7642C240.36 38.7642 241.24 38.5402 241.992 38.0922C242.76 37.6442 243.352 37.0202 243.768 36.2202C244.184 35.4042 244.392 34.4682 244.392 33.4122C244.392 32.6122 244.272 31.8922 244.032 31.2522C243.792 30.5962 243.448 30.0362 243 29.5722C242.552 29.0922 242.016 28.7322 241.392 28.4922C240.784 28.2362 240.104 28.1082 239.352 28.1082C238.344 28.1082 237.456 28.3322 236.688 28.7802C235.936 29.2122 235.352 29.8282 234.936 30.6282C234.52 31.4122 234.312 32.3402 234.312 33.4122C234.312 34.2122 234.432 34.9402 234.672 35.5962C234.912 36.2522 235.248 36.8202 235.68 37.3002C236.128 37.7642 236.664 38.1242 237.288 38.3802C237.912 38.6362 238.6 38.7642 239.352 38.7642ZM263.21 42.1722C261.978 42.1722 260.818 41.9482 259.73 41.5002C258.658 41.0522 257.722 40.4362 256.922 39.6522C256.122 38.8522 255.49 37.9242 255.026 36.8682C254.578 35.7962 254.354 34.6442 254.354 33.4122C254.354 32.1802 254.586 31.0362 255.05 29.9802C255.514 28.9242 256.154 28.0042 256.97 27.2202C257.802 26.4202 258.77 25.8042 259.874 25.3722C260.978 24.9242 262.162 24.7002 263.426 24.7002C264.882 24.7002 266.202 24.9642 267.386 25.4922C268.586 26.0202 269.578 26.7482 270.362 27.6762L267.794 30.2442C267.25 29.5402 266.61 29.0122 265.874 28.6602C265.138 28.3082 264.306 28.1322 263.378 28.1322C262.386 28.1322 261.498 28.3562 260.714 28.8042C259.93 29.2362 259.314 29.8522 258.866 30.6522C258.434 31.4362 258.218 32.3562 258.218 33.4122C258.218 34.4682 258.434 35.3962 258.866 36.1962C259.298 36.9962 259.89 37.6202 260.642 38.0682C261.394 38.5162 262.258 38.7402 263.234 38.7402C264.226 38.7402 265.066 38.5562 265.754 38.1882C266.458 37.8042 266.994 37.2602 267.362 36.5562C267.746 35.8362 267.938 34.9642 267.938 33.9402L270.434 35.6202L262.874 35.5002V32.3082H271.778V32.8602C271.778 34.8922 271.41 36.6042 270.674 37.9962C269.954 39.3722 268.946 40.4122 267.65 41.1162C266.37 41.8202 264.89 42.1722 263.21 42.1722ZM276.942 34.9242V32.1402H280.518C281.27 32.1402 281.846 31.9482 282.246 31.5642C282.662 31.1802 282.87 30.6602 282.87 30.0042C282.87 29.3962 282.67 28.8922 282.27 28.4922C281.87 28.0922 281.294 27.8922 280.542 27.8922H276.942V24.9642H280.974C282.094 24.9642 283.078 25.1802 283.926 25.6122C284.774 26.0282 285.438 26.6122 285.918 27.3642C286.398 28.1162 286.638 28.9802 286.638 29.9562C286.638 30.9482 286.398 31.8202 285.918 32.5722C285.438 33.3082 284.766 33.8842 283.902 34.3002C283.038 34.7162 282.022 34.9242 280.854 34.9242H276.942ZM274.062 41.9082V24.9642H277.83V41.9082H274.062ZM283.278 41.9082L277.998 34.6122L281.454 33.6762L287.742 41.9082H283.278ZM297.384 42.1962C296.104 42.1962 294.92 41.9722 293.832 41.5242C292.76 41.0762 291.816 40.4522 291 39.6522C290.184 38.8522 289.552 37.9242 289.104 36.8682C288.656 35.7962 288.432 34.6442 288.432 33.4122C288.432 32.1642 288.656 31.0122 289.104 29.9562C289.552 28.9002 290.176 27.9802 290.976 27.1962C291.776 26.3962 292.712 25.7802 293.784 25.3482C294.872 24.9002 296.056 24.6762 297.336 24.6762C298.6 24.6762 299.768 24.9002 300.84 25.3482C301.928 25.7802 302.872 26.3962 303.672 27.1962C304.488 27.9802 305.12 28.9082 305.568 29.9802C306.016 31.0362 306.24 32.1882 306.24 33.4362C306.24 34.6682 306.016 35.8202 305.568 36.8922C305.12 37.9482 304.496 38.8762 303.696 39.6762C302.896 40.4602 301.952 41.0762 300.864 41.5242C299.792 41.9722 298.632 42.1962 297.384 42.1962ZM297.336 38.7642C298.344 38.7642 299.224 38.5402 299.976 38.0922C300.744 37.6442 301.336 37.0202 301.752 36.2202C302.168 35.4042 302.376 34.4682 302.376 33.4122C302.376 32.6122 302.256 31.8922 302.016 31.2522C301.776 30.5962 301.432 30.0362 300.984 29.5722C300.536 29.0922 300 28.7322 299.376 28.4922C298.768 28.2362 298.088 28.1082 297.336 28.1082C296.328 28.1082 295.44 28.3322 294.672 28.7802C293.92 29.2122 293.336 29.8282 292.92 30.6282C292.504 31.4122 292.296 32.3402 292.296 33.4122C292.296 34.2122 292.416 34.9402 292.656 35.5962C292.896 36.2522 293.232 36.8202 293.664 37.3002C294.112 37.7642 294.648 38.1242 295.272 38.3802C295.896 38.6362 296.584 38.7642 297.336 38.7642ZM315.448 42.1722C314.056 42.1722 312.824 41.8762 311.752 41.2842C310.696 40.6922 309.864 39.8762 309.256 38.8362C308.664 37.7802 308.368 36.5802 308.368 35.2362V24.9642H312.16V35.4522C312.16 36.1242 312.304 36.7082 312.592 37.2042C312.88 37.7002 313.272 38.0842 313.768 38.3562C314.28 38.6122 314.84 38.7402 315.448 38.7402C316.088 38.7402 316.648 38.6122 317.128 38.3562C317.608 38.0842 317.984 37.7082 318.256 37.2282C318.544 36.7322 318.688 36.1482 318.688 35.4762V24.9642H322.48V35.2602C322.48 36.6042 322.184 37.7962 321.592 38.8362C321 39.8762 320.176 40.6922 319.12 41.2842C318.064 41.8762 316.84 42.1722 315.448 42.1722ZM328.364 35.7402V32.8122H332.012C332.476 32.8122 332.9 32.7162 333.284 32.5242C333.668 32.3322 333.972 32.0522 334.196 31.6842C334.42 31.3162 334.532 30.8682 334.532 30.3402C334.532 29.8282 334.42 29.3882 334.196 29.0202C333.972 28.6522 333.668 28.3722 333.284 28.1802C332.9 27.9882 332.476 27.8922 332.012 27.8922H328.364V24.9642H332.564C333.636 24.9642 334.604 25.1802 335.468 25.6122C336.332 26.0442 337.012 26.6682 337.508 27.4842C338.02 28.2842 338.276 29.2362 338.276 30.3402C338.276 31.4442 338.02 32.4042 337.508 33.2202C337.012 34.0202 336.332 34.6442 335.468 35.0922C334.604 35.5242 333.636 35.7402 332.564 35.7402H328.364ZM325.484 41.9082V24.9642H329.252V41.9082H325.484ZM352.79 42.1962C351.51 42.1962 350.326 41.9722 349.238 41.5242C348.166 41.0762 347.222 40.4522 346.406 39.6522C345.59 38.8522 344.958 37.9242 344.51 36.8682C344.062 35.7962 343.838 34.6442 343.838 33.4122C343.838 32.1642 344.062 31.0122 344.51 29.9562C344.958 28.9002 345.582 27.9802 346.382 27.1962C347.182 26.3962 348.118 25.7802 349.19 25.3482C350.278 24.9002 351.462 24.6762 352.742 24.6762C354.006 24.6762 355.174 24.9002 356.246 25.3482C357.334 25.7802 358.278 26.3962 359.078 27.1962C359.894 27.9802 360.526 28.9082 360.974 29.9802C361.422 31.0362 361.646 32.1882 361.646 33.4362C361.646 34.6682 361.422 35.8202 360.974 36.8922C360.526 37.9482 359.902 38.8762 359.102 39.6762C358.302 40.4602 357.358 41.0762 356.27 41.5242C355.198 41.9722 354.038 42.1962 352.79 42.1962ZM352.742 38.7642C353.75 38.7642 354.63 38.5402 355.382 38.0922C356.15 37.6442 356.742 37.0202 357.158 36.2202C357.574 35.4042 357.782 34.4682 357.782 33.4122C357.782 32.6122 357.662 31.8922 357.422 31.2522C357.182 30.5962 356.838 30.0362 356.39 29.5722C355.942 29.0922 355.406 28.7322 354.782 28.4922C354.174 28.2362 353.494 28.1082 352.742 28.1082C351.734 28.1082 350.846 28.3322 350.078 28.7802C349.326 29.2122 348.742 29.8282 348.326 30.6282C347.91 31.4122 347.702 32.3402 347.702 33.4122C347.702 34.2122 347.822 34.9402 348.062 35.5962C348.302 36.2522 348.638 36.8202 349.07 37.3002C349.518 37.7642 350.054 38.1242 350.678 38.3802C351.302 38.6362 351.99 38.7642 352.742 38.7642ZM364.038 41.9082V24.9642H367.806V41.9082H364.038ZM366.918 35.2602V32.0202H375.39V35.2602H366.918ZM366.918 28.2042V24.9642H375.774V28.2042H366.918ZM159.313 72.1722C158.049 72.1722 156.873 71.9562 155.785 71.5242C154.713 71.0762 153.769 70.4522 152.953 69.6522C152.153 68.8522 151.529 67.9242 151.081 66.8682C150.633 65.7962 150.409 64.6442 150.409 63.4122C150.409 62.1802 150.633 61.0362 151.081 59.9802C151.529 58.9082 152.153 57.9802 152.953 57.1962C153.753 56.4122 154.689 55.8042 155.761 55.3722C156.849 54.9242 158.025 54.7002 159.289 54.7002C160.633 54.7002 161.825 54.9162 162.865 55.3482C163.921 55.7802 164.841 56.3722 165.625 57.1242L163.105 59.6682C162.657 59.1882 162.113 58.8122 161.473 58.5402C160.849 58.2682 160.121 58.1322 159.289 58.1322C158.553 58.1322 157.873 58.2602 157.249 58.5162C156.641 58.7562 156.113 59.1082 155.665 59.5722C155.233 60.0362 154.889 60.5962 154.633 61.2522C154.393 61.9082 154.273 62.6282 154.273 63.4122C154.273 64.2122 154.393 64.9402 154.633 65.5962C154.889 66.2522 155.233 66.8122 155.665 67.2762C156.113 67.7402 156.641 68.1002 157.249 68.3562C157.873 68.6122 158.553 68.7402 159.289 68.7402C160.153 68.7402 160.905 68.6042 161.545 68.3322C162.185 68.0602 162.737 67.6842 163.201 67.2042L165.745 69.7482C164.929 70.5002 163.993 71.0922 162.937 71.5242C161.897 71.9562 160.689 72.1722 159.313 72.1722ZM175.228 72.1962C173.948 72.1962 172.764 71.9722 171.676 71.5242C170.604 71.0762 169.66 70.4522 168.844 69.6522C168.028 68.8522 167.396 67.9242 166.948 66.8682C166.5 65.7962 166.276 64.6442 166.276 63.4122C166.276 62.1642 166.5 61.0122 166.948 59.9562C167.396 58.9002 168.02 57.9802 168.82 57.1962C169.62 56.3962 170.556 55.7802 171.628 55.3482C172.716 54.9002 173.9 54.6762 175.18 54.6762C176.444 54.6762 177.612 54.9002 178.684 55.3482C179.772 55.7802 180.716 56.3962 181.516 57.1962C182.332 57.9802 182.964 58.9082 183.412 59.9802C183.86 61.0362 184.084 62.1882 184.084 63.4362C184.084 64.6682 183.86 65.8202 183.412 66.8922C182.964 67.9482 182.34 68.8762 181.54 69.6762C180.74 70.4602 179.796 71.0762 178.708 71.5242C177.636 71.9722 176.476 72.1962 175.228 72.1962ZM175.18 68.7642C176.188 68.7642 177.068 68.5402 177.82 68.0922C178.588 67.6442 179.18 67.0202 179.596 66.2202C180.012 65.4042 180.22 64.4682 180.22 63.4122C180.22 62.6122 180.1 61.8922 179.86 61.2522C179.62 60.5962 179.276 60.0362 178.828 59.5722C178.38 59.0922 177.844 58.7322 177.22 58.4922C176.612 58.2362 175.932 58.1082 175.18 58.1082C174.172 58.1082 173.284 58.3322 172.516 58.7802C171.764 59.2122 171.18 59.8282 170.764 60.6282C170.348 61.4122 170.14 62.3402 170.14 63.4122C170.14 64.2122 170.26 64.9402 170.5 65.5962C170.74 66.2522 171.076 66.8202 171.508 67.3002C171.956 67.7642 172.492 68.1242 173.116 68.3802C173.74 68.6362 174.428 68.7642 175.18 68.7642ZM186.476 71.9082V54.9642H189.164L195.836 65.3562H194.468L201.116 54.9642H203.828V71.9082H200.06V61.3242L200.732 61.4922L196.388 68.2602H193.892L189.572 61.4922L190.22 61.3242V71.9082H186.476ZM209.957 65.7402V62.8122H213.605C214.069 62.8122 214.493 62.7162 214.877 62.5242C215.261 62.3322 215.565 62.0522 215.789 61.6842C216.013 61.3162 216.125 60.8682 216.125 60.3402C216.125 59.8282 216.013 59.3882 215.789 59.0202C215.565 58.6522 215.261 58.3722 214.877 58.1802C214.493 57.9882 214.069 57.8922 213.605 57.8922H209.957V54.9642H214.157C215.229 54.9642 216.197 55.1802 217.061 55.6122C217.925 56.0442 218.605 56.6682 219.101 57.4842C219.613 58.2842 219.869 59.2362 219.869 60.3402C219.869 61.4442 219.613 62.4042 219.101 63.2202C218.605 64.0202 217.925 64.6442 217.061 65.0922C216.197 65.5242 215.229 65.7402 214.157 65.7402H209.957ZM207.077 71.9082V54.9642H210.845V71.9082H207.077ZM219.54 71.9082L226.26 54.9642H229.668L236.316 71.9082H232.332L227.244 57.8442H228.612L223.452 71.9082H219.54ZM223.356 68.8362V65.7642H232.596V68.8362H223.356ZM238.109 71.9082V54.9642H240.749L241.877 58.3482V71.9082H238.109ZM249.797 71.9082L239.813 59.1162L240.749 54.9642L250.733 67.7562L249.797 71.9082ZM249.797 71.9082L248.789 68.5242V54.9642H252.557V71.9082H249.797ZM261.035 65.5962L254.507 54.9642H258.875L263.891 63.5562H261.083L266.099 54.9642H270.371L263.795 65.5962H261.035ZM260.579 71.9082V63.8682H264.347V71.9082H260.579Z" fill="#333333"/>
</svg>
